# xmcd
#
# Track frame offsets:
#	150
#	20309
#	39241
#	60836
#	83755
#	100569
#	124127
#	146115
#	164965
#	181531
#	196090
#
# Disc length: 2966 seconds
#
# Revision: 10
# Processed by: cddbd v1.5.2PL0 Copyright (c) Steve Scherf et al.
# Submitted via: Jack! The Knife
#
DISCID=810b940b
DTITLE=Queensryche - Q2k
DYEAR=1999
DGENRE=Heavy Metal
TTITLE0=Falling Down
TTITLE1=Sacred Ground
TTITLE2=One Life
TTITLE3=When The Rain Comes...
TTITLE4=How Could I ?
TTITLE5=Beside You
TTITLE6=Liquid Sky
TTITLE7=Breakdown
TTITLE8=Burning Man
TTITLE9=Wot Kinda Man
TTITLE10=The Right Side Of My Mind
EXTD=Atlantic
EXTT0=
EXTT1=
EXTT2=
EXTT3=
EXTT4=
EXTT5=
EXTT6=
EXTT7=
EXTT8=
EXTT9=
EXTT10=
PLAYORDER=
